<?xml version="1.0" standalone="no"?><!DOCTYPE svg PUBLIC "-//W3C//DTD SVG 1.1//EN" "http://www.w3.org/Graphics/SVG/1.1/DTD/svg11.dtd"><svg t="1726832697407" class="icon" viewBox="0 0 1267 1024" version="1.1" xmlns="http://www.w3.org/2000/svg" p-id="2584" width="39.59375" height="32" xmlns:xlink="http://www.w3.org/1999/xlink"><path d="M366.888035 879.830653a366.753298 366.753298 0 0 1 0-733.77607h220.968188l-53.89468-53.89468A53.89468 53.89468 0 0 1 609.953042 15.898931L754.660258 161.68404a53.89468 53.89468 0 0 1-38.265222 91.89043h-350.315421a258.963938 258.963938 0 0 0 0 518.197349 53.89468 53.89468 0 1 1 0 107.78936zM695.106637 1023.998922a53.89468 53.89468 0 0 1-38.265223-15.898931L512.134198 862.314882a53.89468 53.89468 0 0 1 38.265223-91.89043h350.31542a258.963938 258.963938 0 0 0 0-518.197349 53.89468 53.89468 0 0 1 0-107.78936 366.753298 366.753298 0 0 1 0 733.776069h-220.968188l53.89468 53.894681A53.89468 53.89468 0 0 1 695.106637 1023.998922z" fill="#ffffff" p-id="2585"></path><path d="M687.291908 700.630841a53.89468 53.89468 0 0 1-53.89468-53.89468v-138.778801l-15.629457 15.629457a53.89468 53.89468 0 0 1-76.260972-76.260972l107.78936-107.78936A53.89468 53.89468 0 0 1 741.186588 377.262761v269.4734a53.89468 53.89468 0 0 1-53.89468 53.89468z" fill="#ffffff" p-id="2586"></path></svg>