<?xml version="1.0" standalone="no"?><!DOCTYPE svg PUBLIC "-//W3C//DTD SVG 1.1//EN" "http://www.w3.org/Graphics/SVG/1.1/DTD/svg11.dtd"><svg t="1725102056841" class="icon" viewBox="0 0 1077 1024" version="1.1" xmlns="http://www.w3.org/2000/svg" p-id="24237" xmlns:xlink="http://www.w3.org/1999/xlink" width="33.65625" height="32"><path d="M999.100632 473.088c-21.827368 0-36.378947 14.174316-36.378948 35.354947v95.501474c0 120.293053-98.250105 219.297684-225.549473 219.297684H173.271579l47.319579-42.415158c7.275789-7.114105 14.551579-17.731368 14.551579-28.294736a39.828211 39.828211 0 0 0-40.04379-38.912c-10.940632 0-25.492211 3.503158-32.714105 10.617263L38.696421 833.805474c-18.216421 14.120421-14.551579 38.912 0 53.032421l123.688421 106.118737c7.275789 7.060211 21.827368 14.120421 32.714105 14.120421 21.827368 0 39.989895-14.120421 43.654737-35.354948a36.917895 36.917895 0 0 0-18.162526-31.797894l-54.595369-49.583158h567.511579c167.343158 0 301.918316-130.802526 301.918316-286.450527V508.442947c0-21.180632-14.551579-35.354947-36.325052-35.354947z m-945.852632 88.387368c21.827368 0 36.378947-14.120421 36.378947-35.301052V427.061895c0-123.796211 101.861053-222.800842 225.549474-226.357895H879.023158l-47.265684 42.469053c-7.329684 7.006316-14.551579 17.677474-14.551579 28.240842 0 21.234526 18.162526 38.912 39.989894 38.912 10.940632 0 25.492211-3.503158 32.714106-10.617263l120.077473-109.621895c18.216421-14.120421 14.551579-38.912 0-53.032421L886.298947 30.989474c-7.275789-7.060211-21.827368-14.120421-32.714105-14.120421-21.827368 0-40.043789 14.120421-43.654737 35.354947 0 14.120421 7.221895 24.791579 18.162527 31.797895l54.595368 49.583158H318.787368C151.444211 133.551158 16.815158 264.353684 16.815158 430.618947v95.447579c0 21.234526 14.551579 35.408842 36.378947 35.408842z" fill="#ffffff" p-id="24238"></path></svg>